<?xml version="1.0" encoding="UTF-8" standalone="no"?>
<svg
   version="1.0"
   width="668.11371pt"
   height="668.11371pt"
   viewBox="0 0 668.11371 668.11371"
   preserveAspectRatio="xMidYMid"
   id="svg7"
   sodipodi:docname="DALL·E-2024-04-02-22.07.svg"
   inkscape:version="1.3.2 (091e20e, 2023-11-25)"
   xmlns:inkscape="http://www.inkscape.org/namespaces/inkscape"
   xmlns:sodipodi="http://sodipodi.sourceforge.net/DTD/sodipodi-0.dtd"
   xmlns="http://www.w3.org/2000/svg"
   xmlns:svg="http://www.w3.org/2000/svg">
  <defs
     id="defs7" />
  <sodipodi:namedview
     id="namedview7"
     pagecolor="#ffffff"
     bordercolor="#000000"
     borderopacity="0.25"
     inkscape:showpageshadow="2"
     inkscape:pageopacity="0.0"
     inkscape:pagecheckerboard="0"
     inkscape:deskcolor="#d1d1d1"
     inkscape:document-units="pt"
     showgrid="false"
     inkscape:zoom="0.53528005"
     inkscape:cx="456.77025"
     inkscape:cy="448.36343"
     inkscape:window-width="1440"
     inkscape:window-height="847"
     inkscape:window-x="0"
     inkscape:window-y="25"
     inkscape:window-maximized="1"
     inkscape:current-layer="svg7">
    <inkscape:grid
       id="grid7"
       units="px"
       originx="-188.68656"
       originy="-168.63966"
       spacingx="0.74999998"
       spacingy="0.74999998"
       empcolor="#0099e5"
       empopacity="0.30196078"
       color="#0099e5"
       opacity="0.14901961"
       empspacing="5"
       dotted="false"
       gridanglex="30"
       gridanglez="30"
       visible="false" />
  </sodipodi:namedview>
  <rect
     style="fill:#ffffff;stroke:#050505;stroke-width:5.74552;stroke-dasharray:none;stroke-opacity:1"
     id="rect10"
     width="662.36816"
     height="662.36816"
     x="2.8727601"
     y="2.8727601"
     ry="70" />
  <g
     id="g7"
     transform="matrix(0.55219778,0,0,1,54.377634,-168.18733)"
     style="stroke-width:6.72136;stroke-dasharray:none">
    <path
       style="fill:#ffffff;stroke:#000000;stroke-width:6.72136;stroke-dasharray:none;stroke-opacity:1"
       d="M 101.09077,345.66379 H 911.87674"
       id="path7" />
    <path
       style="fill:#ffffff;stroke:#000000;stroke-width:6.72136;stroke-dasharray:none;stroke-opacity:1"
       d="M 101.09077,400.49594 H 911.87674"
       id="path7-7" />
    <path
       style="fill:#ffffff;stroke:#000000;stroke-width:6.72136;stroke-dasharray:none;stroke-opacity:1"
       d="M 101.09077,455.32809 H 911.87674"
       id="path7-3" />
    <path
       style="fill:#ffffff;stroke:#000000;stroke-width:6.72136;stroke-dasharray:none;stroke-opacity:1"
       d="M 101.09077,510.16025 H 911.87673"
       id="path7-79" />
    <path
       style="fill:#ffffff;stroke:#000000;stroke-width:6.72136;stroke-dasharray:none;stroke-opacity:1"
       d="M 101.09077,564.9924 H 911.87674"
       id="path7-0" />
    <path
       style="fill:#ffffff;stroke:#000000;stroke-width:6.72136;stroke-dasharray:none;stroke-opacity:1"
       d="M 101.09077,619.82455 H 911.87673"
       id="path7-2" />
  </g>
  <path
     d="m 316.45935,54.49823 c -27.8,3.2 -54.8,13 -67.2,24.4 -16.9,15.7 -17.2,35.8 -0.6,52.2 7.2,7.2 16.8,12.3 28.9,15.5 7.1,1.9 11.7,2.2 42,2.8 l 34,0.6 5.5,3.1 c 6.4,3.6 11.5,9.7 13.1,15.7 1.7,6.5 0.7,17.3 -2.2,23.7 -3.3,7.1 -11.1,15.5 -19.6,21.2 -3.7,2.5 -18.7,10.4 -33.3,17.6 -28,13.8 -37.8,19.8 -52.6,31.8 -30.3,24.6 -49.6,57.6 -54.4,93.2 -1.7,12.4 -0.8,35 1.9,45.8 7.3,29.6 25.4,57.4 48.6,74.7 10,7.4 29.1,16.9 41,20.2 8.7,2.4 29.2,5.6 30.8,4.8 0.4,-0.2 0.7,-8.9 0.7,-19.3 0,-21.7 1.5,-18.9 -11.3,-21 -17.6,-2.8 -34,-11.3 -47.2,-24.5 -19.6,-19.7 -28.2,-44.2 -25.4,-72 3.1,-30.9 21.8,-58.5 53.3,-79 10.8,-7.1 20.4,-11.8 44.8,-22.3 20.9,-9 29,-13.5 40.7,-22.2 24.5,-18.5 40.4,-46.4 44.2,-77.8 2.7,-22.5 -3.3,-47.6 -16,-66.8 -14.1,-21.2 -32.6,-34.5 -56,-40.5 -8.8,-2.2 -32.4,-3.3 -43.7,-1.9 z m 23.4,24.1 c 13,6.4 13.7,24.8 1,31.9 -12,6.8 -27.8,-1.7 -27.8,-15 0.1,-14.5 13.8,-23.2 26.8,-16.9 z m -69.4,31.9 c 3.9,1.4 4.5,5.6 1.3,8.8 -4.6,4.5 -17.8,4.1 -22.2,-0.8 -2.2,-2.5 -1.3,-6.8 1.8,-8 3,-1.2 16,-1.2 19.1,0 z"
     id="path8"
     style="fill:#000000;stroke:#f9f9f9;stroke-width:38.418;stroke-dasharray:none;stroke-opacity:1" />
  <path
     d="m 359.55935,282.49823 c -22.2,3.4 -54.5,24 -66.4,42.3 -15,23.1 -16.2,54.4 -2.9,76.4 7.6,12.5 19.5,22.7 33.6,28.9 l 7.7,3.4 0.7,-7.8 c 0.4,-4.2 0.6,-12.1 0.6,-17.4 v -9.8 l -4.2,-2.4 c -6.2,-3.6 -13.3,-11.8 -16.9,-19.4 -3,-6.3 -3.2,-7.3 -3.2,-18.2 0,-11 0.2,-11.9 3.2,-18.1 4.2,-8.5 11.1,-15 20.9,-19.6 6.9,-3.3 8.7,-3.7 18,-4.1 13.4,-0.6 20.7,0.8 32.3,6.4 16.1,7.8 28.5,22.2 34.9,40.3 2.4,6.9 2.6,8.9 2.6,22.1 0,12.8 -0.3,15.5 -2.7,23.3 -1.5,4.8 -4.3,11.9 -6.2,15.7 l -3.5,7 0.2,23.6 0.3,23.5 4.6,-3 c 22.2,-14.8 39.8,-43 44.4,-71.6 5.2,-31.6 -2.1,-62.8 -20.2,-86.9 -18.9,-25.2 -49.7,-38.9 -77.8,-34.6 z"
     id="path9"
     style="fill:#000000;stroke:#f9f9f9;stroke-width:38.418;stroke-dasharray:none;stroke-opacity:1" />
  <path
     d="m 338.75935,347.89823 c -2.6,0.7 -5,1.6 -5.3,1.9 -0.9,0.9 -2.3,8.6 -2.4,12.8 0,3.3 0.3,3.6 5.4,5.8 6.4,2.6 11.7,7.7 14.8,14 l 2.3,4.6 v 85 85 l -2.7,5.5 c -4.6,9.4 -13.5,16.8 -22.4,18.8 l -4.2,0.9 2.7,-5.6 c 3.7,-7.9 3.7,-20.1 0,-28.1 -3.4,-7.1 -8.9,-12.6 -15.8,-15.9 -8.1,-3.8 -19.3,-3.7 -27.2,0.2 -24.1,11.7 -27.2,44.6 -6.2,65.6 7.5,7.5 17.6,13.1 27.3,15.2 8.9,1.9 29.1,0.7 37.1,-2.3 23.7,-8.8 40.7,-29.6 44.9,-55 1.3,-8.5 1.4,-167.6 0,-174.9 -4.6,-24 -26.6,-39.3 -48.3,-33.5 z"
     id="path10"
     style="fill:#000000;stroke:#f9f9f9;stroke-width:38.418;stroke-dasharray:none;stroke-opacity:1" />
  <path
     d="m 316.3198,63.36089 c -27.8,3.2 -54.8,13 -67.2,24.4 -16.9,15.7 -17.2,35.8 -0.6,52.2 7.2,7.2 16.8,12.3 28.9,15.5 7.1,1.9 11.7,2.2 42,2.8 l 34,0.6 5.5,3.1 c 6.4,3.6 11.5,9.7 13.1,15.7 1.7,6.5 0.7,17.3 -2.2,23.7 -3.3,7.1 -11.1,15.5 -19.6,21.2 -3.7,2.5 -18.7,10.4 -33.3,17.6 -28,13.8 -37.8,19.8 -52.6,31.8 -30.3,24.6 -49.6,57.6 -54.4,93.2 -1.7,12.4 -0.8,35 1.9,45.8 7.3,29.6 25.4,57.4 48.6,74.7 10,7.4 29.1,16.9 41,20.2 8.7,2.4 29.2,5.6 30.8,4.8 0.4,-0.2 0.7,-8.9 0.7,-19.3 0,-21.7 1.5,-18.9 -11.3,-21 -17.6,-2.8 -34,-11.3 -47.2,-24.5 -19.6,-19.7 -28.2,-44.2 -25.4,-72 3.1,-30.9 21.8,-58.5 53.3,-79 10.8,-7.1 20.4,-11.8 44.8,-22.3 20.9,-9 29,-13.5 40.7,-22.2 24.5,-18.5 40.4,-46.4 44.2,-77.8 2.7,-22.5 -3.3,-47.6 -16,-66.8 -14.1,-21.2 -32.6,-34.5 -56,-40.5 -8.8,-2.2 -32.4,-3.3 -43.7,-1.9 z m 23.4,24.1 c 13,6.4 13.7,24.8 1,31.9 -12,6.8 -27.8,-1.7 -27.8,-15 0.1,-14.5 13.8,-23.2 26.8,-16.9 z m -60.12327,31.9 c 3.50026,1.3001 -2.18426,6.46387 -7.97673,8.8 -5.79247,2.33613 -17.8,4.1 -22.2,-0.8 -2.2,-2.5 -1.3,-6.8 1.8,-8 3,-1.2 24.87647,-1.3001 28.37673,0 z"
     id="path1"
     style="fill:#000000;stroke:none;stroke-width:0.1"
     sodipodi:nodetypes="ccccccccccccccccsscccccccccccccczzccz" />
  <path
     d="m 359.4198,291.36089 c -22.2,3.4 -54.5,24 -66.4,42.3 -15,23.1 -16.2,54.4 -2.9,76.4 7.6,12.5 19.5,22.7 33.6,28.9 l 7.7,3.4 0.7,-7.8 c 0.4,-4.2 0.6,-12.1 0.6,-17.4 v -9.8 l -4.2,-2.4 c -6.2,-3.6 -13.3,-11.8 -16.9,-19.4 -3,-6.3 -3.2,-7.3 -3.2,-18.2 0,-11 0.2,-11.9 3.2,-18.1 4.2,-8.5 11.1,-15 20.9,-19.6 6.9,-3.3 8.7,-3.7 18,-4.1 13.4,-0.6 20.7,0.8 32.3,6.4 16.1,7.8 28.5,22.2 34.9,40.3 2.4,6.9 2.6,8.9 2.6,22.1 0,12.8 -0.3,15.5 -2.7,23.3 -1.5,4.8 -4.3,11.9 -6.2,15.7 l -3.5,7 0.2,23.6 0.3,23.5 4.6,-3 c 22.2,-14.8 39.8,-43 44.4,-71.6 5.2,-31.6 -2.1,-62.8 -20.2,-86.9 -18.9,-25.2 -49.7,-38.9 -77.8,-34.6 z"
     id="path2"
     style="fill:#000000;stroke:none;stroke-width:0.1" />
  <path
     d="m 338.6198,356.76089 c -2.6,0.7 -5,1.6 -5.3,1.9 -0.9,0.9 -2.3,8.6 -2.4,12.8 0,3.3 0.3,3.6 5.4,5.8 6.4,2.6 11.7,7.7 14.8,14 l 2.3,4.6 v 85 67 l -2.7,5.5 c -4.6,9.4 -13.5,16.8 -22.4,18.8 l -4.2,0.9 2.7,-5.6 c 3.7,-7.9 3.7,-20.1 0,-28.1 -3.4,-7.1 -8.9,-12.6 -15.8,-15.9 -8.1,-3.8 -19.3,-3.7 -27.2,0.2 -24.1,11.7 -27.2,44.6 -6.2,65.6 7.5,7.5 17.6,13.1 27.3,15.2 8.9,1.9 29.1,0.7 37.1,-2.3 23.7,-8.8 40.7,-29.6 44.9,-55 1.3,-8.5 1.4,-149.6 0,-156.9 -4.6,-24 -26.6,-39.3 -48.3,-33.5 z"
     id="path5"
     style="fill:#000000;stroke:none;stroke-width:0.1"
     sodipodi:nodetypes="cscccccccccccccsccccc" />
</svg>
