<?xml version="1.0" encoding="UTF-8" standalone="no"?>
<svg
   width="300"
   height="300"
   version="1.1"
   id="svg10"
   sodipodi:docname="polyloops.svg"
   inkscape:version="1.3.2 (091e20e, 2023-11-25)"
   xmlns:inkscape="http://www.inkscape.org/namespaces/inkscape"
   xmlns:sodipodi="http://sodipodi.sourceforge.net/DTD/sodipodi-0.dtd"
   xmlns="http://www.w3.org/2000/svg"
   xmlns:svg="http://www.w3.org/2000/svg">
  <defs
     id="defs10">
    <marker
       style="overflow:visible"
       id="Triangle"
       refX="0"
       refY="0"
       orient="auto-start-reverse"
       inkscape:stockid="Triangle arrow"
       markerWidth="0.75"
       markerHeight="0.75"
       viewBox="0 0 1 1"
       inkscape:isstock="true"
       inkscape:collect="always"
       preserveAspectRatio="xMidYMid">
      <path
         transform="scale(0.5)"
         style="fill:context-stroke;fill-rule:evenodd;stroke:context-stroke;stroke-width:1pt"
         d="M 5.77,0 -2.88,5 V -5 Z"
         id="path135" />
    </marker>
  </defs>
  <sodipodi:namedview
     id="namedview10"
     pagecolor="#ffffff"
     bordercolor="#000000"
     borderopacity="0.25"
     inkscape:showpageshadow="2"
     inkscape:pageopacity="0.0"
     inkscape:pagecheckerboard="0"
     inkscape:deskcolor="#d1d1d1"
     inkscape:zoom="1.1661767"
     inkscape:cx="139.77298"
     inkscape:cy="164.64057"
     inkscape:window-width="1440"
     inkscape:window-height="847"
     inkscape:window-x="0"
     inkscape:window-y="25"
     inkscape:window-maximized="1"
     inkscape:current-layer="svg10" />
  <circle
     style="fill:#dfdfdf;stroke-width:1.61197;fill-opacity:1"
     id="path11"
     cx="151.09734"
     cy="150.35724"
     r="112.5" />
  <path
     sodipodi:type="star"
     style="fill:#8e8e8e;stroke-width:1.88976;fill-opacity:1"
     id="path10"
     inkscape:flatsided="false"
     sodipodi:sides="8"
     sodipodi:cx="158.5137"
     sodipodi:cy="128.53326"
     sodipodi:r1="237.79681"
     sodipodi:r2="7.8444061"
     sodipodi:arg1="-1.5707963"
     sodipodi:arg2="-1.1780972"
     inkscape:rounded="0"
     inkscape:randomized="0"
     d="M 158.51371,-109.26355 161.51563,121.28598 326.66145,-39.614471 165.76099,125.53134 396.31052,128.53327 165.76099,131.53519 326.66144,296.68101 161.51563,135.78055 158.5137,366.33008 155.51178,135.78055 -9.6340418,296.681 151.26642,131.53519 -79.283112,128.53326 151.26642,125.53134 -9.6340328,-39.61448 155.51178,121.28598 Z"
     inkscape:transform-center-y="-14.323725"
     transform="matrix(0.63079062,0,0,0.63079062,51.108377,69.279667)"
     inkscape:transform-center-x="-1.4897102e-06" />
  <path
     sodipodi:type="star"
     style="fill:#8e8e8e;stroke-width:1.88976;stroke:none;fill-opacity:1"
     id="path12"
     inkscape:flatsided="false"
     sodipodi:sides="16"
     sodipodi:cx="158.5137"
     sodipodi:cy="128.53326"
     sodipodi:r1="237.79681"
     sodipodi:r2="7.8444061"
     sodipodi:arg1="-1.5707963"
     sodipodi:arg2="-1.3744468"
     inkscape:rounded="0"
     inkscape:randomized="0"
     d="M 158.51371,-109.26355 160.04407,120.83959 249.51461,-91.162343 162.87182,122.01088 326.66145,-39.614471 165.03609,124.17515 378.20931,37.532369 166.20738,127.0029 396.31052,128.53327 166.20738,130.06363 378.20931,219.53417 165.03609,132.89138 326.66144,296.68101 162.87182,135.05565 249.5146,348.22888 160.04407,136.22694 158.5137,366.33008 156.98333,136.22694 67.512796,348.22887 154.15558,135.05565 -9.6340418,296.681 151.99132,132.89138 -61.181909,219.53416 150.82002,130.06363 -79.283112,128.53326 150.82002,127.0029 -61.181904,37.532357 151.99132,124.17515 -9.6340328,-39.61448 154.15558,122.01088 67.512807,-91.162348 156.98333,120.83959 Z"
     inkscape:transform-center-y="-14.323725"
     transform="matrix(0.63079062,0,0,0.63079062,51.108377,69.279667)"
     inkscape:transform-center-x="-1.4897102e-06" />
  <circle
     style="fill:#505050;fill-opacity:1;stroke:none;stroke-width:1.88976"
     id="path13"
     cx="150.16399"
     cy="38.503582"
     r="6.7381272" />
  <circle
     style="fill:#505050;fill-opacity:1;stroke:none;stroke-width:1.88976"
     id="path13-3"
     cx="263.05466"
     cy="150.16689"
     r="6.7381272" />
  <circle
     style="fill:#505050;fill-opacity:1;stroke:none;stroke-width:1.88976"
     id="path13-3-9"
     cx="150.67126"
     cy="261.91724"
     r="6.7381272" />
  <circle
     style="fill:#505050;fill-opacity:1;stroke:none;stroke-width:1.88976"
     id="path13-3-9-8"
     cx="38.409389"
     cy="150.15256"
     r="6.7381272" />
  <circle
     style="fill:#505050;fill-opacity:1;stroke:none;stroke-width:1.88976"
     id="path13-3-9-8-6-5"
     cx="255.08702"
     cy="193.26187"
     r="6.7381272" />
  <path
     style="fill:#505050;fill-opacity:0.441341;stroke:none;stroke-width:1.88976"
     d="M 150.64527,38.022288 260.86178,149.20138 255.56753,193.9618 150.16397,262.78696 37.059699,149.20138 C 82.74666,103.80027 97.797343,88.139263 150.64527,38.022288 Z"
     id="path14"
     sodipodi:nodetypes="cccccc" />
  <path
     style="fill:#505050;fill-opacity:0.441341;stroke:#000000;stroke-width:3;stroke-dasharray:none;stroke-opacity:1"
     d="M 152.02727,149.2167 254.76755,69.196123"
     id="path15"
     sodipodi:nodetypes="cc" />
  <circle
     style="fill:#000000;fill-opacity:1;stroke:#000000;stroke-width:3;stroke-dasharray:none;stroke-opacity:1"
     id="path16"
     cx="151.09734"
     cy="150.35724"
     r="7.9396844" />
  <path
     style="fill:none;fill-opacity:1;stroke:#000000;stroke-width:3;stroke-dasharray:none;stroke-opacity:1;marker-end:url(#Triangle);stroke-miterlimit:4"
     d="m 243.42884,27.509016 c 3.63326,0.519038 40.48496,32.180358 47.75149,55.537065"
     id="path17" />
</svg>
