<?xml version="1.0" encoding="UTF-8" standalone="no"?>
<!-- Created with Inkscape (http://www.inkscape.org/) -->

<svg
   version="1.1"
   id="svg1"
   width="891"
   height="891"
   viewBox="0 0 891 891"
   sodipodi:docname="logo.svg"
   inkscape:version="1.3.2 (091e20e, 2023-11-25)"
   xml:space="preserve"
   inkscape:export-filename="logo.png"
   inkscape:export-xdpi="96"
   inkscape:export-ydpi="96"
   xmlns:inkscape="http://www.inkscape.org/namespaces/inkscape"
   xmlns:sodipodi="http://sodipodi.sourceforge.net/DTD/sodipodi-0.dtd"
   xmlns="http://www.w3.org/2000/svg"
   xmlns:svg="http://www.w3.org/2000/svg"><defs
     id="defs1" /><sodipodi:namedview
     id="namedview1"
     pagecolor="#ffffff"
     bordercolor="#000000"
     borderopacity="0.25"
     inkscape:showpageshadow="2"
     inkscape:pageopacity="0.0"
     inkscape:pagecheckerboard="0"
     inkscape:deskcolor="#d1d1d1"
     showgrid="false"
     inkscape:zoom="0.13952615"
     inkscape:cx="702.37731"
     inkscape:cy="1311.5821"
     inkscape:window-width="1440"
     inkscape:window-height="847"
     inkscape:window-x="0"
     inkscape:window-y="25"
     inkscape:window-maximized="1"
     inkscape:current-layer="g1" /><g
     inkscape:groupmode="layer"
     inkscape:label="Image"
     id="g1"><rect
       style="opacity:1;fill:#ffffff;stroke-width:6.66604;fill-opacity:1"
       id="rect2"
       width="891"
       height="891"
       x="-2.6296327"
       y="-2.6296327"
       rx="150"
       ry="150" /><path
       d="m 454.36422,489.83399 c -0.30118,-1.3239 0.41966,-3.1239 0.11495,-4 -0.50283,-1.44594 -21.97485,-1.5929 25.82993,-1.5929 h 36.66356 v 4 4 h -35.56202 -26.49882 z"
       style="fill:#000000;stroke-width:0.952009"
       id="path1-9"
       sodipodi:nodetypes="ssscccccs" /><path
       id="path1"
       style="fill:#000000"
       d="m 431.95117,92.214844 c -7.93741,0.210287 -23.91693,1.907072 -39.74805,5.783203 -45.81092,11.216463 -71.63717,29.919593 -76.30664,55.261723 -5.23761,28.4255 24.16993,58.21796 62.88672,63.70898 3.90567,0.55392 26.45576,1.46228 50.11133,2.01758 l 43.00977,1.00976 5.29882,3.08985 c 7.17025,4.18112 13.43014,10.38412 16.56446,16.41406 2.08129,4.0041 2.68329,6.80145 3.02539,14.04492 0.51442,10.89253 -1.38649,19.45415 -6.08008,27.37891 -4.03721,6.81652 -15.41453,10.35816 -23.16406,15.5 -3.25336,2.15862 -21.96178,12.11856 -41.57422,22.13086 -36.87264,18.82376 -50.18507,26.50415 -64.4375,37.18164 -28.13029,21.07438 -48.32483,44.60174 -62.9082,73.28906 -12.84506,25.26783 -18.40906,46.2994 -19.32618,73.04102 -0.99735,29.0812 2.10916,47.92458 11.78321,71.45312 9.29929,22.61711 22.38882,42.16098 39.83594,59.48242 12.54734,12.45696 23.89837,20.43611 41.57812,29.22266 20.60843,10.24207 27.89561,12.67313 49,16.35351 7.14999,1.24689 14.87982,2.30134 17.17773,2.34376 l 4.17774,0.0781 20.98969,1.08809 c 0.35495,-2.8875 0.14273,-15.53319 -0.0352,-26.10236 -0.26001,-15.44605 0.5571,-26.56014 -0.64858,-27.74716 -0.825,-0.81223 -20.48007,1.7258 -32.61842,-0.71709 -23.5884,-4.74726 -44.69305,-14.16998 -62.24414,-30.84179 -31.79115,-30.19849 -43.84725,-72.72644 -32.87695,-115.97266 8.92083,-35.16698 33.47656,-65.90253 72.07812,-90.21875 10.7087,-6.74571 23.40541,-12.96401 53.01562,-25.96484 39.53102,-17.35673 52.34887,-25.32539 71.55079,-44.48438 C 554.81273,297.3436 567.59277,281.56712 574.01562,250 580.14067,219.89653 576.05974,190.12706 561.95117,162 546.58985,131.37543 520.27639,108.13431 489.57422,98.074219 475.95065,93.610222 470.43837,92.852875 447.5,92.291016 c -6.04235,-0.148004 -10.97901,-0.197241 -15.54883,-0.07617 z m 9.58203,29.777346 c 12.5158,0.0286 24.86816,9.42964 24.82422,24.49219 -0.0279,9.57292 -5.99212,18.37606 -15.00195,22.14062 -1.80984,0.75619 -6.11906,1.35784 -9.57422,1.33594 -19.64363,-0.12459 -31.02261,-20.9087 -20.31055,-37.09571 4.98507,-7.53294 12.55303,-10.8902 20.0625,-10.87304 z m -78.29687,44.13867 c 5.84937,0.94897 12.57981,2.29592 8.64062,6.51953 -3.16295,3.39134 -10.16162,6.84245 -16.67578,8.22461 -9.72818,2.06411 -17.7752,1.17572 -21.61914,-2.38672 -3.05762,-2.83371 -3.3087,-6.36947 -0.68359,-9.61133 1.80549,-2.22968 2.61401,-2.36323 16.51367,-2.72265 5.89556,-0.15245 10.15239,-0.61914 13.82422,-0.0234 z m 129.40234,221.87695 c -20.72368,0.013 -39.98493,6.75427 -64.13867,22.45117 -28.91689,18.79237 -43.145,36.91172 -50.68164,64.54102 -1.99026,7.29626 -2.31659,10.83667 -2.30859,25 0.0104,19.1684 1.23995,25.29018 7.9414,39.5 9.51881,20.18375 34.5506,37.94204 48.13281,40.74805 13.39517,2.76736 30.55216,2.8914 45.10547,8.71484 0.64664,0.9299 1.26585,1.88778 1.85157,2.87891 0,0 2.36893,2.59586 3.50976,5.9414 1.14083,3.34555 0,86.33399 0,86.33399 v 56.33398 l -3.4082,6.72461 c -4.42323,8.72558 -9.58569,14.61955 -17.00977,19.41797 -5.5936,3.61532 -16.12609,7.59655 -17.21484,6.50781 -0.26628,-0.26628 0.7797,-3.34469 2.32422,-6.84179 2.58952,-5.86324 2.80852,-7.33292 2.80859,-18.87891 8e-5,-12.15231 -0.0977,-12.71983 -3.31055,-19.24609 -8.46188,-17.18853 -25.78266,-26.34067 -44.76562,-23.65235 -9.52825,1.34937 -16.83981,5.1816 -24.5,12.8418 -10.05156,10.05156 -13.85254,19.52185 -13.89844,34.61719 -0.0404,13.27975 4.31715,25.9354 12.71289,36.92382 8.41269,11.01062 25.04576,22.02297 39.26172,25.99219 6.54641,1.82781 35.98172,1.55847 45,-0.41211 8.28255,-1.80983 24.55892,-10.15264 33,-16.91406 14.54701,-11.65235 26.78698,-30.54284 32.15625,-49.63086 l 2.25,-8 0.35547,-51.4043 c 0.22484,-61.50172 -0.0194,-85.13391 -0.66211,-91.51953 -1.16307,-11.55627 2.09734,-39.52275 -4.28036,-49.29444 -8.70712,-13.34074 -22.20198,-18.17779 -37.05558,-19.66259 0,0 -18.65909,-2.83617 -31.99414,-6.69336 -13.33505,-3.85719 -31.99234,-14.00565 -31.84765,-29.30273 0.14469,-15.29708 9.88329,-42.43927 28.02734,-51.39258 10.81534,-5.3369 12.95513,-4.62422 27.5,-4.60742 16.06284,0.0186 25.94519,2.01293 40.42188,10.7832 17.77855,10.77062 33.45234,31.29838 39.85156,52.19336 2.59435,8.47121 3.58984,25.47327 2.34179,40 -1.10383,12.84819 -5.12863,26.1032 -12.1875,40.14258 L 544,586.95508 v 19.36523 c 0,10.65085 0.29407,24.81741 0.65234,31.48047 l 0.65039,12.11524 6.09961,-4.16993 c 3.35423,-2.29316 11.07363,-9.13598 17.1543,-15.20703 20.89312,-20.86001 34.23009,-45.71395 40.47852,-75.42383 2.65999,-12.64769 3.62908,-35.70844 2.04492,-48.69335 -8.36493,-68.56484 -58.26502,-118.45187 -118.44141,-118.41407 z"
       sodipodi:nodetypes="ssssccssssssssssssscccsssssssssssssssssssscsssssscssccscccsssssssssssscccssczszzsssccsccssssssscs" /><path
       style="fill:#000000"
       d="m 140.17763,634.74108 v -4.5 h 66.7594 84.7595 l 1.3934,2.25 c 0.76635,1.23747 2.05129,3.2625 2.8555,4.5 l 1.4622,2.25 h -87.615 -69.615 z m 453.00003,3.8862 c 0,-0.3377 0.98288,-2.36265 2.1841,-4.5 l 2.1841,-3.8862 h 75.8159 63.8159 v 4.5 4.5 h -66 c -36.3,0 -78,-0.2762 -78,-0.6138 z m -453.00003,-76.8862 v -4.5 h 54 c 45.1515,0 68,0.2253 68,1.375 0,0.7563 0.28126,2.78129 0.625,4.5 l 0.625,3.125 h -68.625 -54.625 z m 490.19253,0.25 0.3075,-4.25 53.25,-0.2588 53.25,-0.2587 v 4.5087 4.5088 h -53.5575 -53.5575 z M 140.17763,488.24109 v -4 h 55.625 55.625 l -0.625,3.125 c -0.3438,1.71875 -0.625,3.51875 -0.625,4 0,0.48939 -24.2381,0.875 -55,0.875 h -55 z m 492.61263,1.5929 c -0.33231,-1.3239 -0.8792,-3.1239 -1.2154,-4 -0.5548,-1.44594 -5.2502,-1.5929 47.4958,-1.5929 h 58.107 v 4 4 h -56.8916 -46.8916 z m -492.61263,-75.0929 v -4.5 h 72 c 50.3356,0 72,0.32097 72,1.06672 0,0.5867 -1.1785,2.6117 -2.6187,4.5 l -2.6187,3.43328 h -69.3813 -69.3813 z m 453.8446,0.88902 c -2.38957,-1.98607 -4.4946,-4.01104 -4.678,-4.5 -0.1928,-0.51429 15.10863,-0.88902 63.75003,-0.88902 h 84.0834 v 4.5 4.5 h -79.4054 -59.40543 z m -453.8446,-73.88902 v -4.5 l 113.25,0.026 101.25,0.026 -7,4.46275 -7,4.46276 -94.25,0.0112 -106.25,0.0112 z m 419.1073,0 3.2317,-4.5 h 87.33053 87.3305 v 4.5 4.5 h -90.5622 -90.56213 z m -419.1073,-73.00301 v -4.50301 l 162.2363,0.25301 c 156.278,0.24372 154.2492,0.32018 154.5885,2.0821 0.1938,1.00601 0.0789,2.91849 -0.2553,4.25 l -0.6077,2.42091 H 411.27119 302.15853 140.17763 Z m 452.08143,0.75301 c 0.479,-2.0625 0.8816,-4.0875 0.8947,-4.5 0.013,-0.4125 32.4239,-0.75 72.0239,-0.75 h 72 v 4.5 4.5 h -72.8947 -72.8947 z"
       id="path2"
       sodipodi:nodetypes="ccccssccccsscccccssccssscccccccccccccccccsssccssscccccsccsssccccssscccccsccccccccccccccccccccssscccccssscccccs" /></g></svg>
